<svg width="346" height="230" viewBox="0 0 346 230" fill="none" xmlns="http://www.w3.org/2000/svg">
<g clip-path="url(#clip0)">
<g filter="url(#filter0_d)">
<path d="M114.874 218.5C171.973 218.5 218.26 172.161 218.26 115C218.26 57.8385 171.973 11.5 114.874 11.5C57.7751 11.5 11.4874 57.8385 11.4874 115C11.4874 172.161 57.7751 218.5 114.874 218.5Z" fill="#212121"/>
<path d="M114.874 207C165.628 207 206.773 165.81 206.773 115C206.773 64.1898 165.628 23 114.874 23C64.1194 23 22.9748 64.1898 22.9748 115C22.9748 165.81 64.1194 207 114.874 207Z" fill="url(#paint0_linear)"/>
<path d="M171.943 122.544C172.495 122.053 172.985 122.115 173.414 122.728C173.904 123.28 173.873 123.801 173.322 124.292C172.342 125.089 171.3 126.285 170.197 127.88C169.094 129.413 168.236 130.763 167.624 131.928C167.011 133.032 166.154 134.627 165.051 136.712C163.825 139.043 162.906 140.699 162.294 141.68C162.294 141.741 162.294 141.772 162.294 141.772C158.985 147.66 155.861 150.604 152.92 150.604C151.021 150.604 149.336 149.224 147.866 146.464C146.395 143.643 145.66 139.779 145.66 134.872C145.66 130.885 146.242 121.961 147.406 108.1C148.019 100.679 148.356 95.9559 148.417 93.9319C148.785 86.5719 148.172 82.0639 146.579 80.4079C146.211 80.0399 145.783 79.8559 145.292 79.8559C144.251 79.8559 142.964 81.2971 141.433 84.1799C141.433 84.2411 141.433 84.2719 141.433 84.2719C139.411 88.9331 137.542 97.6428 135.827 110.4C135.153 115.061 134.663 118.189 134.356 119.784V119.876C133.805 122.759 133.193 124.752 132.518 125.856C131.844 126.96 130.895 127.512 129.67 127.512C128.567 127.512 127.464 126.745 126.361 125.212C125.32 123.617 124.676 121.593 124.431 119.14C124.186 116.993 124.064 112.363 124.064 105.248C124.064 101.936 124.033 99.3291 123.972 97.4279C123.972 95.4651 123.88 93.0731 123.696 90.2519C123.573 87.3691 123.329 85.0999 122.961 83.4439C122.593 81.7268 122.103 80.5611 121.491 79.9479C121.246 79.7028 121 79.5799 120.755 79.5799C120.572 79.5799 120.327 79.7331 120.02 80.0399C119.714 80.2851 119.346 80.7759 118.917 81.5119C118.489 82.1868 118.06 83.0451 117.631 84.0879C117.202 85.1308 116.743 86.5108 116.252 88.2279C115.824 89.8839 115.425 91.7548 115.058 93.8399C114.078 99.2371 113.005 108.897 111.841 122.82C111.29 129.076 110.861 133.983 110.555 137.54C110.555 137.601 110.524 137.632 110.463 137.632C110.402 139.472 110.31 141.067 110.187 142.416C110.126 143.704 110.064 144.471 110.003 144.716V144.992C109.88 145.851 109.758 146.525 109.636 147.016C109.513 147.507 109.329 148.089 109.084 148.764C108.9 149.377 108.594 149.837 108.165 150.144C107.736 150.451 107.185 150.604 106.511 150.604C105.592 150.604 104.857 150.267 104.305 149.592C103.448 148.672 103.172 147.016 103.478 144.624C103.662 142.907 103.938 138.491 104.305 131.376C104.734 124.261 105.01 115.92 105.133 106.352C105.255 96.7228 104.796 89.3628 103.754 84.2719C103.631 83.5971 103.448 82.9839 103.203 82.4319C103.019 81.8799 102.774 81.3891 102.467 80.9599C102.223 80.5308 101.916 80.1628 101.548 79.8559C101.242 79.5491 100.905 79.3348 100.538 79.2119C100.17 79.0279 99.7716 78.9359 99.3429 78.9359C96.9535 78.9359 94.809 79.7639 92.91 81.4199C91.072 83.0759 89.7243 85.3759 88.8664 88.3199C88.8664 88.3199 88.8664 88.3508 88.8664 88.4119C87.9474 92.8891 87.8863 97.4588 88.6826 102.12C89.5405 106.72 90.8574 110.155 92.6343 112.424C93.063 112.976 92.9711 113.497 92.3586 113.988C91.8072 114.417 91.3169 114.356 90.8882 113.804C89.4178 111.903 88.1923 109.204 87.2122 105.708C86.2932 102.151 85.8645 98.2868 85.9256 94.1159C86.0483 89.9451 86.8446 86.3268 88.315 83.2599C90.9493 77.9239 95.2685 75.2559 101.273 75.2559C103.233 75.2559 104.949 76.0228 106.419 77.5559C107.89 79.0891 108.9 81.1748 109.452 83.8119C110.493 88.7188 111.106 95.8639 111.29 105.248C111.718 101.016 112.178 97.3971 112.668 94.3919C112.668 94.3308 112.668 94.2999 112.668 94.2999C113.71 88.0439 115.058 83.3211 116.712 80.1319C118.366 76.8811 120.572 75.2559 123.329 75.2559C124.431 75.2559 125.411 75.6239 126.269 76.3599C127.127 77.0959 127.801 78.3228 128.291 80.0399C128.842 81.6959 129.271 83.2908 129.578 84.8239C129.884 86.3571 130.098 88.5651 130.221 91.4479C130.344 94.3308 130.405 96.6611 130.405 98.4399C130.466 100.157 130.497 102.703 130.497 106.076C130.558 115.399 130.895 120.704 131.508 121.992C131.691 121.563 131.906 120.857 132.151 119.876C132.151 119.815 132.151 119.784 132.151 119.784C132.151 119.723 132.151 119.692 132.151 119.692V119.416C132.151 119.416 132.182 119.385 132.243 119.324C132.549 117.668 133.009 114.601 133.621 110.124C134.173 106.076 134.632 102.887 135 100.556C135.367 98.2251 135.95 95.3428 136.746 91.9079C137.604 88.4119 138.523 85.5599 139.503 83.3519C139.503 83.2908 139.503 83.2291 139.503 83.1679C141.892 77.8931 144.894 75.2559 148.509 75.2559C149.918 75.2559 151.082 75.7771 152.001 76.8199C153.043 77.9239 153.808 79.5799 154.299 81.7879C154.789 83.9348 154.973 86.9091 154.85 90.7119C154.789 94.4531 154.666 97.6731 154.482 100.372C154.36 103.009 154.054 106.935 153.563 112.148C153.135 116.748 152.828 120.275 152.644 122.728C152.522 125.181 152.399 128.187 152.277 131.744C152.154 135.301 152.277 138.123 152.644 140.208C153.012 142.232 153.594 143.673 154.39 144.532C154.819 145.023 155.34 145.268 155.953 145.268C157.117 145.268 158.649 143.643 160.548 140.392C161.099 139.411 161.957 137.847 163.121 135.7C164.224 133.492 165.112 131.805 165.786 130.64C166.46 129.475 167.379 128.064 168.543 126.408C169.707 124.752 170.84 123.464 171.943 122.544ZM198.096 122.82C198.464 122.207 198.954 122.115 199.567 122.544C200.18 122.912 200.302 123.403 199.934 124.016C198.525 126.163 197.361 127.88 196.442 129.168C195.523 130.395 194.267 132.02 192.674 134.044C191.082 136.068 189.489 137.755 187.895 139.104C186.364 140.392 184.832 141.373 183.301 142.048C183.178 142.109 183.056 142.171 182.933 142.232C181.769 142.661 180.635 142.876 179.533 142.876C176.898 142.876 174.417 141.649 172.089 139.196C169.822 136.743 168.689 133.308 168.689 128.892C168.689 123.617 169.914 119.477 172.365 116.472C174.877 113.467 177.787 111.964 181.095 111.964C182.627 111.964 183.913 112.332 184.955 113.068C186.18 113.927 186.793 115.153 186.793 116.748V116.84C186.732 119.355 185.568 121.716 183.301 123.924C181.095 126.071 178.644 127.788 175.949 129.076C175.887 130.057 175.857 131.1 175.857 132.204C175.857 135.639 176.653 137.969 178.246 139.196C179.41 140.116 180.789 140.423 182.382 140.116C183.484 139.625 184.679 138.859 185.966 137.816C187.252 136.712 188.386 135.639 189.366 134.596C190.346 133.492 191.449 132.112 192.674 130.456C193.961 128.739 194.911 127.42 195.523 126.5C196.197 125.58 197.055 124.353 198.096 122.82ZM181.554 116.104C178.981 117.883 177.235 121.317 176.316 126.408C178.522 125.181 180.421 123.709 182.014 121.992C183.668 120.275 184.526 118.557 184.587 116.84C184.587 116.104 184.311 115.644 183.76 115.46C183.209 115.276 182.473 115.491 181.554 116.104ZM235.05 122.268C235.356 122.268 235.601 122.391 235.785 122.636C236.03 122.82 236.153 123.065 236.153 123.372C236.153 123.679 236.03 123.955 235.785 124.2C235.601 124.384 235.356 124.476 235.05 124.476H231.741H231.006C230.639 124.476 230.118 124.476 229.444 124.476C228.831 124.476 228.28 124.476 227.79 124.476C227.361 124.476 226.963 124.476 226.595 124.476H226.503C225.523 124.476 224.604 124.353 223.746 124.108C222.888 123.863 222.184 123.587 221.633 123.28C221.142 122.973 220.622 122.544 220.07 121.992C219.58 121.379 219.212 120.919 218.967 120.612C218.784 120.244 218.508 119.723 218.14 119.048C217.589 118.067 217.129 117.392 216.762 117.024C216.394 116.656 215.904 116.472 215.291 116.472C213.576 116.472 211.707 118.895 209.686 123.74C209.686 123.801 209.686 123.832 209.686 123.832C207.909 128.616 206.653 134.473 205.918 141.404C205.918 141.404 205.918 141.435 205.918 141.496C205.857 142.109 205.55 142.539 204.999 142.784C204.692 142.907 204.355 142.968 203.988 142.968C203.069 142.968 202.119 142.661 201.139 142.048C200.159 141.373 199.424 140.576 198.933 139.656C197.463 136.528 196.636 132.235 196.452 126.776C196.268 121.256 196.728 116.993 197.831 113.988C198.076 113.191 198.627 112.639 199.485 112.332C200.404 111.964 201.292 111.903 202.15 112.148C202.701 112.332 203.161 112.608 203.528 112.976C203.957 113.283 204.264 113.743 204.447 114.356C204.631 114.908 204.631 115.552 204.447 116.288C202.793 123.157 202.762 129.781 204.356 136.16C205.152 131.131 206.255 126.776 207.664 123.096C207.664 123.035 207.664 122.973 207.664 122.912C207.725 122.851 207.756 122.82 207.756 122.82C209.165 119.263 210.758 116.564 212.535 114.724C214.311 112.884 216.119 111.964 217.957 111.964C219.243 111.964 220.377 112.148 221.357 112.516C222.399 112.884 223.287 113.467 224.022 114.264C224.818 115.061 225.4 115.736 225.768 116.288C226.197 116.84 226.687 117.637 227.238 118.68C228.035 119.968 228.678 120.888 229.168 121.44C229.72 121.992 230.332 122.268 231.006 122.268H235.05ZM272.966 122.82C273.333 122.207 273.823 122.084 274.436 122.452C275.11 122.82 275.263 123.311 274.895 123.924L274.252 125.028C271.128 130.364 268.585 134.289 266.624 136.804C266.563 136.865 266.533 136.927 266.533 136.988L266.349 137.08C266.349 137.08 266.349 137.111 266.349 137.172C266.349 137.172 266.318 137.172 266.257 137.172C263.193 140.975 260.467 142.876 258.078 142.876C255.872 142.876 254.095 141.956 252.748 140.116C251.4 138.215 250.572 135.363 250.266 131.56C249.715 132.971 249.133 134.259 248.52 135.424C245.824 140.392 242.639 142.876 238.963 142.876C236.88 142.876 235.042 141.987 233.449 140.208C231.917 138.429 231.151 135.669 231.151 131.928C231.151 126.96 232.806 122.391 236.114 118.22C239.483 114.049 242.884 111.964 246.315 111.964C248.704 111.964 250.542 112.547 251.829 113.712C251.951 113.773 252.074 113.865 252.196 113.988C252.196 113.988 252.227 113.988 252.288 113.988C252.41 113.436 252.717 113.007 253.207 112.7C253.759 112.332 254.31 112.117 254.861 112.056C255.474 111.995 256.056 112.025 256.607 112.148C257.465 112.393 258.108 112.884 258.537 113.62C259.027 114.356 259.119 115.245 258.813 116.288C258.2 118.68 257.71 121.256 257.343 124.016C256.975 126.776 256.883 129.505 257.067 132.204C257.251 134.903 257.802 136.835 258.721 138C259.395 138.797 260.222 139.165 261.202 139.104C261.754 138.92 262.918 137.785 264.695 135.7L264.786 135.516H264.878C266.777 133.124 269.259 129.26 272.322 123.924L272.966 122.82ZM250.358 124.936C250.542 122.053 250.91 119.324 251.461 116.748C251.338 116.503 251.216 116.288 251.094 116.104C250.91 115.859 250.695 115.613 250.45 115.368C249.96 115.123 249.317 115.092 248.52 115.276C246.131 115.951 243.772 118.005 241.444 121.44C239.177 124.813 238.044 128.555 238.044 132.664C238.044 134.811 238.35 136.497 238.963 137.724C239.636 138.889 240.311 139.472 240.985 139.472C241.904 139.472 242.884 138.981 243.925 138C244.967 136.957 245.855 135.731 246.59 134.32C246.59 134.32 246.59 134.289 246.59 134.228C247.693 132.265 248.888 129.352 250.175 125.488C250.175 125.427 250.175 125.335 250.175 125.212C250.236 125.089 250.297 124.997 250.358 124.936ZM310.906 123.004C311.151 122.329 311.61 122.145 312.285 122.452C312.959 122.697 313.142 123.157 312.836 123.832C312.775 124.077 312.621 124.445 312.376 124.936C309.129 132.48 306.219 138.307 303.646 142.416C300.215 147.875 297.152 150.604 294.456 150.604C293.721 150.604 292.986 150.328 292.251 149.776C291.515 149.224 290.872 148.611 290.321 147.936C289.83 147.261 289.249 146.28 288.575 144.992C287.962 143.643 287.472 142.569 287.104 141.772C286.737 140.913 286.246 139.687 285.634 138.092C284.96 136.375 284.5 135.24 284.255 134.688C283.581 133.093 282.632 132.296 281.406 132.296C280.732 134.627 280.059 137.111 279.385 139.748C279.385 140.423 279.109 141.067 278.558 141.68C277.822 142.416 277.026 142.815 276.168 142.876H276.076C274.606 142.876 273.656 141.864 273.227 139.84C270.961 129.597 270.715 118.496 272.492 106.536C274.269 94.5759 277.424 85.7439 281.958 80.0399C284.592 76.7891 287.441 75.1639 290.504 75.1639C293.445 75.1639 295.314 76.6971 296.11 79.7639C296.417 80.8679 296.539 82.2171 296.478 83.8119C296.417 85.3451 296.233 86.7559 295.927 88.0439C295.008 92.7668 293.139 98.1331 290.321 104.144C286.154 112.792 281.958 118.925 277.73 122.544C277.792 125.979 278.098 129.751 278.649 133.86C282.754 119.201 287.594 111.872 293.17 111.872C294.517 111.872 295.528 112.363 296.202 113.344C296.815 114.203 297.121 115.307 297.121 116.656C297.121 119.048 296.294 121.593 294.64 124.292C292.986 126.929 290.841 128.953 288.207 130.364C288.942 130.855 289.524 131.529 289.953 132.388C290.443 133.369 291.148 135.056 292.067 137.448C292.495 138.613 292.802 139.503 292.986 140.116C293.231 140.668 293.568 141.404 293.997 142.324C294.425 143.183 294.793 143.857 295.099 144.348C295.467 144.777 295.896 145.176 296.386 145.544C296.876 145.912 297.366 146.096 297.856 146.096C298.408 146.035 299.694 144.471 301.716 141.404C304.289 137.295 307.169 131.529 310.355 124.108C310.6 123.617 310.783 123.249 310.906 123.004ZM292.71 78.7519C291.301 78.7519 289.738 79.9788 288.023 82.4319C286.308 84.8851 284.715 88.0131 283.244 91.8159C281.835 95.5571 280.61 99.9428 279.568 104.972C278.527 109.94 277.945 114.785 277.822 119.508C281.437 115.767 284.929 110.339 288.299 103.224C290.995 97.5199 292.802 92.3988 293.721 87.8599C293.721 87.7988 293.721 87.7371 293.721 87.6759C293.782 87.6148 293.813 87.5531 293.813 87.4919C294.058 86.2651 294.211 85.0999 294.272 83.9959C294.333 81.6039 294.027 79.9788 293.353 79.1199C293.17 78.8748 292.955 78.7519 292.71 78.7519ZM282.417 129.352C285.542 127.88 287.839 125.948 289.31 123.556C290.78 121.164 291.393 119.109 291.148 117.392C291.025 116.779 290.811 116.472 290.504 116.472C289.769 116.472 288.942 116.993 288.023 118.036C287.104 119.079 286.154 120.581 285.174 122.544C284.255 124.445 283.336 126.715 282.417 129.352ZM332.143 122.82C332.51 122.207 333 122.084 333.613 122.452C334.287 122.82 334.44 123.311 334.072 123.924L333.429 125.028C330.243 130.425 327.701 134.351 325.801 136.804C325.74 136.865 325.71 136.927 325.71 136.988L325.526 137.08C325.526 137.08 325.495 137.111 325.434 137.172C322.371 140.975 319.644 142.876 317.255 142.876C315.049 142.876 313.273 141.956 311.925 140.116C310.577 138.215 309.781 135.424 309.535 131.744C309.29 128.064 309.382 124.66 309.811 121.532C310.24 118.404 310.761 115.889 311.373 113.988C311.68 113.129 312.262 112.547 313.119 112.24C314.038 111.933 314.927 111.903 315.785 112.148C316.642 112.393 317.286 112.884 317.714 113.62C318.205 114.356 318.297 115.245 317.99 116.288C317.378 118.68 316.887 121.256 316.52 124.016C316.152 126.776 316.06 129.505 316.244 132.204C316.428 134.903 316.979 136.835 317.898 138C318.511 138.736 319.338 139.104 320.379 139.104C320.931 138.92 322.095 137.785 323.872 135.7L323.964 135.516C325.863 133.124 328.375 129.26 331.499 123.924L332.143 122.82ZM319.552 108.008C318.633 108.253 317.592 108.253 316.428 108.008C315.325 107.701 314.406 107.241 313.671 106.628C312.997 105.953 312.721 105.309 312.844 104.696C313.028 104.021 313.549 103.561 314.406 103.316C315.325 103.009 316.367 102.979 317.531 103.224C318.695 103.469 319.614 103.929 320.288 104.604C321.023 105.279 321.298 105.953 321.115 106.628C320.992 107.241 320.471 107.701 319.552 108.008Z" fill="white"/>
</g>
</g>
<defs>
<filter id="filter0_d" x="-13.5126" y="-13.5" width="372.78" height="257" filterUnits="userSpaceOnUse" color-interpolation-filters="sRGB">
<feFlood flood-opacity="0" result="BackgroundImageFix"/>
<feColorMatrix in="SourceAlpha" type="matrix" values="0 0 0 0 0 0 0 0 0 0 0 0 0 0 0 0 0 0 127 0"/>
<feOffset/>
<feGaussianBlur stdDeviation="12.5"/>
<feColorMatrix type="matrix" values="0 0 0 0 0 0 0 0 0 0 0 0 0 0 0 0 0 0 0.5 0"/>
<feBlend mode="normal" in2="BackgroundImageFix" result="effect1_dropShadow"/>
<feBlend mode="normal" in="SourceGraphic" in2="effect1_dropShadow" result="shape"/>
</filter>
<linearGradient id="paint0_linear" x1="22.9748" y1="115" x2="206.773" y2="115" gradientUnits="userSpaceOnUse">
<stop stop-color="#931905"/>
<stop offset="1" stop-color="#D52001"/>
</linearGradient>
<clipPath id="clip0">
<rect width="346" height="230" fill="white"/>
</clipPath>
</defs>
</svg>
