<svg xmlns="http://www.w3.org/2000/svg" data-name="Layer 1" viewBox="0 0 100 125" x="0px" y="0px"><title>A__44</title><path d="M10.98889,82H49.038A25.592,25.592,0,0,1,82,49.0376V34.94446H5V76.01111A5.989,5.989,0,0,0,10.98889,82Z"/><path d="M68.3111,17.40558V7.99445a2.99445,2.99445,0,0,0-5.9889,0v9.41113a2.99445,2.99445,0,0,0,5.9889,0Z"/><path d="M82,18.689A5.989,5.989,0,0,0,76.01111,12.7h-4.1v4.70581a6.59424,6.59424,0,1,1-13.18847,0V12.7H28.27734v4.70581a6.59424,6.59424,0,1,1-13.18847,0V12.7h-4.1A5.989,5.989,0,0,0,5,18.689V29.811H82Z"/><path d="M24.6778,17.40558V7.99445a2.99445,2.99445,0,0,0-5.9889,0v9.41113a2.99445,2.99445,0,0,0,5.9889,0Z"/><path d="M73,51A22,22,0,1,0,95,73,22,22,0,0,0,73,51Zm8.68524,33.95422L73,79.86346l-8.68524,5.09076,2.15771-9.83331L58.947,68.4339l10.0188-.98657L73,58.22375l4.03424,9.22358,10.0188.98657-7.52551,6.687Z"/><text x="0" y="115" fill="#000000" font-size="5px" font-weight="bold" font-family="'Helvetica Neue', Helvetica, Arial-Unicode, Arial, Sans-serif">Created by Markus</text><text x="0" y="120" fill="#000000" font-size="5px" font-weight="bold" font-family="'Helvetica Neue', Helvetica, Arial-Unicode, Arial, Sans-serif">from the Noun Project</text></svg>