<svg width="254" height="16" viewBox="0 0 254 16" fill="none" xmlns="http://www.w3.org/2000/svg">
<path d="M6.128 12.192C5.01867 12.192 4.05867 11.952 3.248 11.472C2.448 10.9813 1.82933 10.304 1.392 9.44C0.954667 8.56533 0.736 7.55733 0.736 6.416C0.736 5.264 0.954667 4.256 1.392 3.392C1.82933 2.51733 2.448 1.83467 3.248 1.344C4.05867 0.853333 5.01867 0.608 6.128 0.608C7.44 0.608 8.512 0.928 9.344 1.568C10.176 2.208 10.704 3.104 10.928 4.256H9.04C8.89067 3.60533 8.57067 3.088 8.08 2.704C7.58933 2.32 6.93333 2.128 6.112 2.128C4.992 2.128 4.10667 2.512 3.456 3.28C2.80533 4.03733 2.48 5.08267 2.48 6.416C2.48 7.73867 2.80533 8.77867 3.456 9.536C4.10667 10.2933 4.992 10.672 6.112 10.672C6.93333 10.672 7.58933 10.4907 8.08 10.128C8.57067 9.76533 8.89067 9.26933 9.04 8.64H10.928C10.704 9.74933 10.176 10.6187 9.344 11.248C8.512 11.8773 7.44 12.192 6.128 12.192ZM16.4403 12.192C15.6829 12.192 15.0003 12.0213 14.3923 11.68C13.7949 11.328 13.3203 10.8427 12.9683 10.224C12.6163 9.59467 12.4403 8.864 12.4403 8.032C12.4403 7.2 12.6163 6.47467 12.9683 5.856C13.3309 5.22667 13.8163 4.74133 14.4243 4.4C15.0323 4.048 15.7096 3.872 16.4563 3.872C17.2136 3.872 17.8909 4.048 18.4883 4.4C19.0963 4.74133 19.5763 5.22667 19.9283 5.856C20.2909 6.47467 20.4722 7.2 20.4722 8.032C20.4722 8.864 20.2909 9.59467 19.9283 10.224C19.5763 10.8427 19.0963 11.328 18.4883 11.68C17.8803 12.0213 17.1976 12.192 16.4403 12.192ZM16.4403 10.736C16.8456 10.736 17.2189 10.6347 17.5603 10.432C17.9123 10.2293 18.1949 9.93067 18.4083 9.536C18.6216 9.13067 18.7283 8.62933 18.7283 8.032C18.7283 7.43467 18.6216 6.93867 18.4083 6.544C18.2056 6.13867 17.9283 5.83467 17.5763 5.632C17.2349 5.42933 16.8616 5.328 16.4563 5.328C16.0509 5.328 15.6723 5.42933 15.3203 5.632C14.9789 5.83467 14.7016 6.13867 14.4883 6.544C14.2749 6.93867 14.1683 7.43467 14.1683 8.032C14.1683 8.62933 14.2749 9.13067 14.4883 9.536C14.7016 9.93067 14.9789 10.2293 15.3203 10.432C15.6616 10.6347 16.0349 10.736 16.4403 10.736ZM22.3064 15.52V4.064H23.8264L24.0024 5.296C24.2584 4.92267 24.6104 4.592 25.0584 4.304C25.5064 4.016 26.0824 3.872 26.7864 3.872C27.5544 3.872 28.2317 4.05333 28.8184 4.416C29.405 4.77867 29.8637 5.27467 30.1944 5.904C30.5357 6.53333 30.7064 7.248 30.7064 8.048C30.7064 8.848 30.5357 9.56267 30.1944 10.192C29.8637 10.8107 29.405 11.3013 28.8184 11.664C28.2317 12.016 27.549 12.192 26.7704 12.192C26.1517 12.192 25.6024 12.0693 25.1224 11.824C24.653 11.5787 24.2797 11.232 24.0024 10.784V15.52H22.3064ZM26.4824 10.72C27.2077 10.72 27.805 10.4747 28.2744 9.984C28.7437 9.48267 28.9784 8.832 28.9784 8.032C28.9784 7.50933 28.8717 7.04533 28.6584 6.64C28.445 6.23467 28.1517 5.92 27.7784 5.696C27.405 5.46133 26.973 5.344 26.4824 5.344C25.757 5.344 25.1597 5.59467 24.6904 6.096C24.2317 6.59733 24.0024 7.24267 24.0024 8.032C24.0024 8.832 24.2317 9.48267 24.6904 9.984C25.1597 10.4747 25.757 10.72 26.4824 10.72ZM32.7969 15.52L34.7009 11.344H34.2369L31.1009 4.064H32.9409L35.3729 9.936L37.9169 4.064H39.7089L34.5889 15.52H32.7969ZM41.1033 12V4.064H42.6233L42.7673 5.568C43.0446 5.04533 43.4286 4.63467 43.9193 4.336C44.4206 4.02667 45.0233 3.872 45.7273 3.872V5.648H45.2633C44.7939 5.648 44.3726 5.728 43.9993 5.888C43.6366 6.03733 43.3433 6.29867 43.1193 6.672C42.9059 7.03467 42.7993 7.54133 42.7993 8.192V12H41.1033ZM48.1414 2.56C47.8214 2.56 47.5547 2.464 47.3414 2.272C47.1387 2.06933 47.0374 1.81867 47.0374 1.52C47.0374 1.22133 47.1387 0.976 47.3414 0.783999C47.5547 0.581333 47.8214 0.48 48.1414 0.48C48.4614 0.48 48.7227 0.581333 48.9254 0.783999C49.1387 0.976 49.2454 1.22133 49.2454 1.52C49.2454 1.81867 49.1387 2.06933 48.9254 2.272C48.7227 2.464 48.4614 2.56 48.1414 2.56ZM47.2934 12V4.064H48.9894V12H47.2934ZM54.4763 9.568C54.0603 9.568 53.6763 9.52 53.3243 9.424L52.6363 10.096C52.7536 10.1707 52.8976 10.2347 53.0683 10.288C53.2389 10.3413 53.4789 10.3893 53.7883 10.432C54.0976 10.4747 54.5189 10.5173 55.0523 10.56C56.1083 10.656 56.8709 10.912 57.3403 11.328C57.8096 11.7333 58.0443 12.2773 58.0443 12.96C58.0443 13.4293 57.9163 13.872 57.6603 14.288C57.4149 14.7147 57.0256 15.056 56.4923 15.312C55.9696 15.5787 55.2976 15.712 54.4763 15.712C53.3669 15.712 52.4656 15.4987 51.7723 15.072C51.0896 14.656 50.7483 14.0213 50.7483 13.168C50.7483 12.8373 50.8336 12.5067 51.0043 12.176C51.1856 11.856 51.4683 11.552 51.8523 11.264C51.6283 11.168 51.4309 11.0667 51.2603 10.96C51.1003 10.8427 50.9563 10.7253 50.8283 10.608V10.224L52.2043 8.816C51.5856 8.28267 51.2763 7.584 51.2763 6.72C51.2763 6.19733 51.3989 5.72267 51.6443 5.296C51.9003 4.85867 52.2683 4.512 52.7483 4.256C53.2283 4 53.8043 3.872 54.4763 3.872C54.9243 3.872 55.3403 3.936 55.7243 4.064H58.6843V5.184L57.2763 5.264C57.5323 5.70133 57.6603 6.18667 57.6603 6.72C57.6603 7.25333 57.5323 7.73333 57.2763 8.16C57.0309 8.58667 56.6683 8.928 56.1883 9.184C55.7189 9.44 55.1483 9.568 54.4763 9.568ZM54.4763 8.24C54.9669 8.24 55.3616 8.112 55.6603 7.856C55.9696 7.58933 56.1243 7.216 56.1243 6.736C56.1243 6.24533 55.9696 5.872 55.6603 5.616C55.3616 5.36 54.9669 5.232 54.4763 5.232C53.9749 5.232 53.5696 5.36 53.2603 5.616C52.9616 5.872 52.8123 6.24533 52.8123 6.736C52.8123 7.216 52.9616 7.58933 53.2603 7.856C53.5696 8.112 53.9749 8.24 54.4763 8.24ZM52.3483 13.008C52.3483 13.4667 52.5509 13.808 52.9563 14.032C53.3616 14.2667 53.8683 14.384 54.4763 14.384C55.0629 14.384 55.5376 14.256 55.9003 14C56.2629 13.7547 56.4443 13.424 56.4443 13.008C56.4443 12.6987 56.3216 12.432 56.0763 12.208C55.8309 11.9947 55.3669 11.8613 54.6843 11.808C54.1723 11.776 53.7189 11.728 53.3243 11.664C52.9509 11.8667 52.6949 12.0853 52.5563 12.32C52.4176 12.5547 52.3483 12.784 52.3483 13.008ZM60.197 12V0.48H61.893V5.344C62.1597 4.88533 62.5277 4.528 62.997 4.272C63.477 4.00533 64.005 3.872 64.581 3.872C65.5303 3.872 66.277 4.17067 66.821 4.768C67.365 5.36533 67.637 6.256 67.637 7.44V12H65.957V7.616C65.957 6.08 65.3437 5.312 64.117 5.312C63.477 5.312 62.9437 5.536 62.517 5.984C62.101 6.432 61.893 7.072 61.893 7.904V12H60.197ZM72.9625 12C72.1838 12 71.5652 11.8133 71.1065 11.44C70.6478 11.056 70.4185 10.3787 70.4185 9.408V5.488H69.0585V4.064H70.4185L70.6265 2.048H72.1145V4.064H74.3545V5.488H72.1145V9.408C72.1145 9.84533 72.2052 10.1493 72.3865 10.32C72.5785 10.48 72.9038 10.56 73.3625 10.56H74.2745V12H72.9625ZM85.3825 12.08C84.2838 12.08 83.3132 11.84 82.4705 11.36C81.6385 10.8693 80.9878 10.1973 80.5185 9.344C80.0598 8.48 79.8305 7.49333 79.8305 6.384C79.8305 5.27467 80.0598 4.29333 80.5185 3.44C80.9878 2.58667 81.6385 1.92 82.4705 1.44C83.3132 0.949333 84.2838 0.704 85.3825 0.704C86.4812 0.704 87.4465 0.949333 88.2785 1.44C89.1212 1.92 89.7772 2.58667 90.2465 3.44C90.7158 4.29333 90.9505 5.27467 90.9505 6.384C90.9505 7.49333 90.7158 8.48 90.2465 9.344C89.7772 10.1973 89.1212 10.8693 88.2785 11.36C87.4465 11.84 86.4812 12.08 85.3825 12.08ZM85.3825 11.408C86.3745 11.408 87.2332 11.2 87.9585 10.784C88.6838 10.3573 89.2438 9.76533 89.6385 9.008C90.0332 8.25067 90.2305 7.376 90.2305 6.384C90.2305 5.38133 90.0332 4.50667 89.6385 3.76C89.2438 3.00267 88.6838 2.416 87.9585 2C87.2332 1.57333 86.3745 1.36 85.3825 1.36C84.3905 1.36 83.5318 1.57333 82.8065 2C82.0812 2.416 81.5212 3.00267 81.1265 3.76C80.7318 4.50667 80.5345 5.38133 80.5345 6.384C80.5345 7.376 80.7318 8.25067 81.1265 9.008C81.5212 9.76533 82.0812 10.3573 82.8065 10.784C83.5318 11.2 84.3905 11.408 85.3825 11.408ZM85.3985 10.064C84.7478 10.064 84.1558 9.92 83.6225 9.632C83.0998 9.33333 82.6785 8.912 82.3585 8.368C82.0492 7.81333 81.8945 7.14667 81.8945 6.368C81.8945 5.6 82.0492 4.944 82.3585 4.4C82.6785 3.84533 83.0998 3.424 83.6225 3.136C84.1558 2.83733 84.7478 2.688 85.3985 2.688C86.1985 2.688 86.8972 2.90667 87.4945 3.344C88.0918 3.78133 88.4865 4.39467 88.6785 5.184H87.1745C87.0465 4.768 86.8172 4.448 86.4865 4.224C86.1665 4 85.7932 3.888 85.3665 3.888C84.8012 3.888 84.3212 4.096 83.9265 4.512C83.5318 4.928 83.3345 5.552 83.3345 6.384C83.3345 7.20533 83.5318 7.82933 83.9265 8.256C84.3212 8.672 84.8012 8.88 85.3665 8.88C85.8145 8.88 86.1932 8.768 86.5025 8.544C86.8118 8.30933 87.0358 7.98933 87.1745 7.584H88.6785C88.4865 8.34133 88.0918 8.944 87.4945 9.392C86.8972 9.84 86.1985 10.064 85.3985 10.064ZM96.6464 12V10.784C97.3717 10.208 98.065 9.62667 98.7264 9.04C99.3877 8.45333 99.9744 7.87733 100.486 7.312C101.009 6.736 101.42 6.176 101.718 5.632C102.017 5.07733 102.166 4.544 102.166 4.032C102.166 3.69067 102.108 3.37067 101.99 3.072C101.873 2.76267 101.681 2.51733 101.414 2.336C101.148 2.144 100.79 2.048 100.342 2.048C99.6704 2.048 99.1637 2.26133 98.8224 2.688C98.4917 3.11467 98.3317 3.62667 98.3424 4.224H96.6944C96.705 3.43467 96.8704 2.77333 97.1904 2.24C97.521 1.70667 97.9584 1.30133 98.5024 1.024C99.057 0.746666 99.681 0.608 100.374 0.608C101.43 0.608 102.273 0.906666 102.902 1.504C103.542 2.09067 103.862 2.912 103.862 3.968C103.862 4.59733 103.708 5.22133 103.398 5.84C103.1 6.45867 102.705 7.056 102.214 7.632C101.734 8.19733 101.217 8.73067 100.662 9.232C100.108 9.73333 99.5797 10.1867 99.0784 10.592H104.198V12H96.6464ZM110.382 12.192C109.368 12.192 108.494 11.952 107.758 11.472C107.032 10.9813 106.472 10.304 106.078 9.44C105.694 8.56533 105.502 7.552 105.502 6.4C105.502 5.248 105.694 4.24 106.078 3.376C106.472 2.50133 107.032 1.824 107.758 1.344C108.494 0.853333 109.368 0.608 110.382 0.608C111.395 0.608 112.264 0.853333 112.99 1.344C113.715 1.824 114.27 2.50133 114.654 3.376C115.048 4.24 115.246 5.248 115.246 6.4C115.246 7.552 115.048 8.56533 114.654 9.44C114.27 10.304 113.715 10.9813 112.99 11.472C112.264 11.952 111.395 12.192 110.382 12.192ZM110.382 10.672C110.99 10.672 111.528 10.5013 111.998 10.16C112.478 9.81867 112.851 9.328 113.118 8.688C113.384 8.048 113.518 7.28533 113.518 6.4C113.518 5.51467 113.384 4.752 113.118 4.112C112.851 3.472 112.478 2.98133 111.998 2.64C111.528 2.29867 110.99 2.128 110.382 2.128C109.763 2.128 109.219 2.29867 108.75 2.64C108.28 2.98133 107.912 3.472 107.646 4.112C107.379 4.752 107.246 5.51467 107.246 6.4C107.246 7.28533 107.379 8.048 107.646 8.688C107.912 9.328 108.28 9.81867 108.75 10.16C109.219 10.5013 109.763 10.672 110.382 10.672ZM116.787 12V10.784C117.512 10.208 118.206 9.62667 118.867 9.04C119.528 8.45333 120.115 7.87733 120.627 7.312C121.15 6.736 121.56 6.176 121.859 5.632C122.158 5.07733 122.307 4.544 122.307 4.032C122.307 3.69067 122.248 3.37067 122.131 3.072C122.014 2.76267 121.822 2.51733 121.555 2.336C121.288 2.144 120.931 2.048 120.483 2.048C119.811 2.048 119.304 2.26133 118.963 2.688C118.632 3.11467 118.472 3.62667 118.483 4.224H116.835C116.846 3.43467 117.011 2.77333 117.331 2.24C117.662 1.70667 118.099 1.30133 118.643 1.024C119.198 0.746666 119.822 0.608 120.515 0.608C121.571 0.608 122.414 0.906666 123.043 1.504C123.683 2.09067 124.003 2.912 124.003 3.968C124.003 4.59733 123.848 5.22133 123.539 5.84C123.24 6.45867 122.846 7.056 122.355 7.632C121.875 8.19733 121.358 8.73067 120.803 9.232C120.248 9.73333 119.72 10.1867 119.219 10.592H124.339V12H116.787ZM130.522 12.192C129.509 12.192 128.634 11.952 127.898 11.472C127.173 10.9813 126.613 10.304 126.218 9.44C125.834 8.56533 125.642 7.552 125.642 6.4C125.642 5.248 125.834 4.24 126.218 3.376C126.613 2.50133 127.173 1.824 127.898 1.344C128.634 0.853333 129.509 0.608 130.522 0.608C131.536 0.608 132.405 0.853333 133.13 1.344C133.856 1.824 134.41 2.50133 134.794 3.376C135.189 4.24 135.386 5.248 135.386 6.4C135.386 7.552 135.189 8.56533 134.794 9.44C134.41 10.304 133.856 10.9813 133.13 11.472C132.405 11.952 131.536 12.192 130.522 12.192ZM130.522 10.672C131.13 10.672 131.669 10.5013 132.138 10.16C132.618 9.81867 132.992 9.328 133.258 8.688C133.525 8.048 133.658 7.28533 133.658 6.4C133.658 5.51467 133.525 4.752 133.258 4.112C132.992 3.472 132.618 2.98133 132.138 2.64C131.669 2.29867 131.13 2.128 130.522 2.128C129.904 2.128 129.36 2.29867 128.89 2.64C128.421 2.98133 128.053 3.472 127.786 4.112C127.52 4.752 127.386 5.51467 127.386 6.4C127.386 7.28533 127.52 8.048 127.786 8.688C128.053 9.328 128.421 9.81867 128.89 10.16C129.36 10.5013 129.904 10.672 130.522 10.672ZM143.932 12V2.176H140.62V0.799999H148.924V2.176H145.628V12H143.932ZM150.511 12V0.799999H157.631V2.176H152.207V5.664H157.151V7.008H152.207V10.624H157.631V12H150.511ZM159.652 12V0.799999H163.284C164.596 0.799999 165.673 1.02933 166.516 1.488C167.369 1.94667 167.998 2.59733 168.404 3.44C168.82 4.272 169.028 5.264 169.028 6.416C169.028 7.55733 168.82 8.54933 168.404 9.392C167.998 10.224 167.369 10.8693 166.516 11.328C165.673 11.776 164.596 12 163.284 12H159.652ZM161.348 10.56H163.22C164.233 10.56 165.033 10.3947 165.62 10.064C166.217 9.73333 166.644 9.25867 166.9 8.64C167.166 8.02133 167.3 7.28 167.3 6.416C167.3 5.552 167.166 4.80533 166.9 4.176C166.644 3.54667 166.217 3.06667 165.62 2.736C165.033 2.39467 164.233 2.224 163.22 2.224H161.348V10.56ZM170.07 12L172.886 8.032L170.07 4.064H171.878L174.006 7.104L176.118 4.064H177.942L175.126 8.032L177.942 12H176.118L174.006 8.96L171.878 12H170.07ZM182.698 12L178.554 0.799999H180.362L183.722 10.24L187.098 0.799999H188.89L184.746 12H182.698ZM190.324 12V0.799999H192.02V12H190.324ZM196.916 12V2.176H193.604V0.799999H201.908V2.176H198.612V12H196.916ZM206.807 12L202.663 0.799999H204.471L207.831 10.24L211.207 0.799999H212.999L208.855 12H206.807ZM217.097 12.192C216.318 12.192 215.625 12.0213 215.017 11.68C214.419 11.328 213.95 10.8427 213.609 10.224C213.267 9.60533 213.097 8.88533 213.097 8.064C213.097 7.232 213.262 6.50133 213.593 5.872C213.934 5.24267 214.403 4.752 215.001 4.4C215.609 4.048 216.313 3.872 217.113 3.872C217.891 3.872 218.569 4.048 219.145 4.4C219.721 4.74133 220.169 5.2 220.489 5.776C220.809 6.352 220.969 6.98667 220.969 7.68C220.969 7.78667 220.963 7.904 220.953 8.032C220.953 8.14933 220.947 8.28267 220.937 8.432H214.761C214.814 9.2 215.065 9.78667 215.513 10.192C215.971 10.5867 216.499 10.784 217.097 10.784C217.577 10.784 217.977 10.6773 218.297 10.464C218.627 10.24 218.873 9.94133 219.033 9.568H220.729C220.515 10.3147 220.089 10.9387 219.449 11.44C218.819 11.9413 218.035 12.192 217.097 12.192ZM217.097 5.264C216.531 5.264 216.03 5.43467 215.593 5.776C215.155 6.10667 214.889 6.608 214.793 7.28H219.273C219.241 6.66133 219.022 6.17067 218.617 5.808C218.211 5.44533 217.705 5.264 217.097 5.264ZM222.728 12V0.48H224.424V12H222.728ZM226.572 12V0.48H228.268V12H226.572ZM234.128 12.192C233.37 12.192 232.688 12.0213 232.08 11.68C231.482 11.328 231.008 10.8427 230.656 10.224C230.304 9.59467 230.128 8.864 230.128 8.032C230.128 7.2 230.304 6.47467 230.656 5.856C231.018 5.22667 231.504 4.74133 232.112 4.4C232.72 4.048 233.397 3.872 234.144 3.872C234.901 3.872 235.578 4.048 236.176 4.4C236.784 4.74133 237.264 5.22667 237.616 5.856C237.978 6.47467 238.16 7.2 238.16 8.032C238.16 8.864 237.978 9.59467 237.616 10.224C237.264 10.8427 236.784 11.328 236.176 11.68C235.568 12.0213 234.885 12.192 234.128 12.192ZM234.128 10.736C234.533 10.736 234.906 10.6347 235.248 10.432C235.6 10.2293 235.882 9.93067 236.096 9.536C236.309 9.13067 236.416 8.62933 236.416 8.032C236.416 7.43467 236.309 6.93867 236.096 6.544C235.893 6.13867 235.616 5.83467 235.264 5.632C234.922 5.42933 234.549 5.328 234.144 5.328C233.738 5.328 233.36 5.42933 233.008 5.632C232.666 5.83467 232.389 6.13867 232.176 6.544C231.962 6.93867 231.856 7.43467 231.856 8.032C231.856 8.62933 231.962 9.13067 232.176 9.536C232.389 9.93067 232.666 10.2293 233.008 10.432C233.349 10.6347 233.722 10.736 234.128 10.736ZM239.994 12V4.064H241.514L241.658 5.568C241.935 5.04533 242.319 4.63467 242.81 4.336C243.311 4.02667 243.914 3.872 244.618 3.872V5.648H244.154C243.685 5.648 243.263 5.728 242.89 5.888C242.527 6.03733 242.234 6.29867 242.01 6.672C241.797 7.03467 241.69 7.54133 241.69 8.192V12H239.994ZM249.565 12.192C248.787 12.192 248.093 12.0213 247.485 11.68C246.888 11.328 246.419 10.8427 246.077 10.224C245.736 9.60533 245.565 8.88533 245.565 8.064C245.565 7.232 245.731 6.50133 246.061 5.872C246.403 5.24267 246.872 4.752 247.469 4.4C248.077 4.048 248.781 3.872 249.581 3.872C250.36 3.872 251.037 4.048 251.613 4.4C252.189 4.74133 252.637 5.2 252.957 5.776C253.277 6.352 253.437 6.98667 253.437 7.68C253.437 7.78667 253.432 7.904 253.421 8.032C253.421 8.14933 253.416 8.28267 253.405 8.432H247.229C247.283 9.2 247.533 9.78667 247.981 10.192C248.44 10.5867 248.968 10.784 249.565 10.784C250.045 10.784 250.445 10.6773 250.765 10.464C251.096 10.24 251.341 9.94133 251.501 9.568H253.197C252.984 10.3147 252.557 10.9387 251.917 11.44C251.288 11.9413 250.504 12.192 249.565 12.192ZM249.565 5.264C249 5.264 248.499 5.43467 248.061 5.776C247.624 6.10667 247.357 6.608 247.261 7.28H251.741C251.709 6.66133 251.491 6.17067 251.085 5.808C250.68 5.44533 250.173 5.264 249.565 5.264Z" fill="white"/>
</svg>
