<svg width="711" height="815" viewBox="0 0 711 815" fill="none" xmlns="http://www.w3.org/2000/svg">
<path d="M378.322 415.042L375.177 406.884L371.849 398.664L380.545 399.96L389.241 401.257L383.873 408.18L378.322 415.042Z" stroke="url(#paint0_linear)" stroke-width="2" stroke-miterlimit="10"/>
<path d="M377.956 415.528L374.873 406.579L371.729 397.812L380.911 399.474L390.275 401.198L384.176 408.485L377.956 415.528Z" stroke="url(#paint1_linear)" stroke-width="2" stroke-miterlimit="10"/>
<path d="M377.529 416.196L374.509 406.456L371.488 396.717L381.277 398.989L391.31 401.14L384.541 408.607L377.529 416.196Z" stroke="url(#paint2_linear)" stroke-width="2" stroke-miterlimit="10"/>
<path d="M377.163 416.682L374.205 406.151L371.247 395.621L381.887 398.381L392.344 401.081L384.845 408.912L377.163 416.682Z" stroke="url(#paint3_linear)" stroke-width="2" stroke-miterlimit="10"/>
<path d="M376.554 417.289L373.902 405.847L371.067 394.343L382.314 397.713L393.561 401.084L385.148 409.217L376.554 417.289Z" stroke="url(#paint4_linear)" stroke-width="2" stroke-miterlimit="10"/>
<path d="M375.944 417.896L373.416 405.481L371.07 393.127L382.924 397.106L394.96 401.147L385.452 409.521L375.944 417.896Z" stroke="url(#paint5_linear)" stroke-width="2" stroke-miterlimit="10"/>
<path d="M375.334 418.503L373.112 405.176L370.952 391.667L383.533 396.499L396.359 401.211L385.938 409.888L375.334 418.503Z" stroke="url(#paint6_linear)" stroke-width="2" stroke-miterlimit="10"/>
<path d="M374.663 419.293L372.687 404.628L370.833 390.206L384.386 395.772L397.879 401.519L386.18 410.375L374.663 419.293Z" stroke="url(#paint7_linear)" stroke-width="2" stroke-miterlimit="10"/>
<path d="M373.871 419.838L372.384 404.322L370.776 388.563L385.179 395.225L399.46 401.643L386.666 410.741L373.871 419.838Z" stroke="url(#paint8_linear)" stroke-width="2" stroke-miterlimit="10"/>
<path d="M373.018 420.566L371.959 403.774L370.962 386.8L386.032 394.497L401.162 402.012L387.09 411.289L373.018 420.566Z" stroke="url(#paint9_linear)" stroke-width="2" stroke-miterlimit="10"/>
<path d="M371.983 421.233L371.535 403.226L371.148 385.036L386.946 393.587L402.865 402.381L387.515 411.838L371.983 421.233Z" stroke="url(#paint10_linear)" stroke-width="2" stroke-miterlimit="10"/>
<path d="M370.886 422.082L371.171 402.495L371.214 383.029L388.164 392.981L404.932 402.872L387.878 412.569L370.886 422.082Z" stroke="url(#paint11_linear)" stroke-width="2" stroke-miterlimit="10"/>
<path d="M369.606 422.87L370.564 401.885L371.522 380.9L389.261 392.132L406.938 403.546L388.303 413.117L369.606 422.87Z" stroke="url(#paint12_linear)" stroke-width="2" stroke-miterlimit="10"/>
<path d="M368.328 423.658L370.201 401.155L372.075 378.651L390.54 391.344L409.127 404.28L388.849 413.909L368.328 423.658Z" stroke="url(#paint13_linear)" stroke-width="2" stroke-miterlimit="10"/>
<path d="M367.048 424.446L369.716 400.18L372.506 376.158L392.002 390.617L411.497 405.076L389.212 414.64L367.048 424.446Z" stroke="url(#paint14_linear)" stroke-width="2" stroke-miterlimit="10"/>
<path d="M365.404 425.112L369.353 399.45L373.181 373.543L393.646 389.952L413.989 406.116L389.697 415.614L365.404 425.112Z" stroke="url(#paint15_linear)" stroke-width="2" stroke-miterlimit="10"/>
<path d="M363.699 425.96L368.869 398.475L373.917 370.747L395.351 389.104L416.664 407.217L390.181 416.589L363.699 425.96Z" stroke="url(#paint16_linear)" stroke-width="2" stroke-miterlimit="10"/>
<path d="M361.812 426.747L368.445 397.318L374.896 367.829L397.238 388.317L419.398 408.743L390.605 417.745L361.812 426.747Z" stroke="url(#paint17_linear)" stroke-width="2" stroke-miterlimit="10"/>
<path d="M359.742 427.472L368.022 396.162L376.119 364.79L399.126 387.53L422.314 410.331L391.028 418.902L359.742 427.472Z" stroke="url(#paint18_linear)" stroke-width="2" stroke-miterlimit="10"/>
<path d="M357.611 428.38L367.477 394.761L377.465 361.386L401.439 386.683L425.413 411.98L391.451 420.058L357.611 428.38Z" stroke="url(#paint19_linear)" stroke-width="2" stroke-miterlimit="10"/>
<path d="M355.176 428.983L367.115 393.422L379.054 357.861L403.874 386.08L428.754 414.117L391.934 421.641L355.176 428.983Z" stroke="url(#paint20_linear)" stroke-width="2" stroke-miterlimit="10"/>
<path d="M352.498 429.707L366.815 391.901L380.887 354.215L406.552 385.356L432.034 416.436L392.297 422.98L352.498 429.707Z" stroke="url(#paint21_linear)" stroke-width="2" stroke-miterlimit="10"/>
<path d="M349.638 430.37L366.331 390.318L383.025 350.266L409.413 384.693L435.8 419.12L392.719 424.745L349.638 430.37Z" stroke="url(#paint22_linear)" stroke-width="2" stroke-miterlimit="10"/>
<path d="M346.594 430.972L365.909 388.553L385.467 346.013L412.455 384.091L439.505 421.988L393.141 426.511L346.594 430.972Z" stroke="url(#paint23_linear)" stroke-width="2" stroke-miterlimit="10"/>
<path d="M343.187 431.452L365.731 386.667L388.153 341.639L415.681 383.551L443.451 425.342L393.319 428.397L343.187 431.452Z" stroke="url(#paint24_linear)" stroke-width="2" stroke-miterlimit="10"/>
<path d="M339.597 431.87L365.431 384.537L391.265 337.205L419.453 383.194L447.458 429.122L393.619 430.527L339.597 431.87Z" stroke="url(#paint25_linear)" stroke-width="2" stroke-miterlimit="10"/>
<path d="M335.825 432.226L365.375 382.286L394.744 332.285L423.225 382.837L451.768 433.207L393.857 432.838L335.825 432.226Z" stroke="url(#paint26_linear)" stroke-width="2" stroke-miterlimit="10"/>
<path d="M331.687 432.461L365.198 379.792L398.648 327.305L427.545 382.664L456.26 437.962L393.913 435.09L331.687 432.461Z" stroke="url(#paint27_linear)" stroke-width="2" stroke-miterlimit="10"/>
<path d="M327.247 432.39L365.264 377.176L403.282 321.962L432.046 382.552L460.811 443.142L394.029 437.766L327.247 432.39Z" stroke="url(#paint28_linear)" stroke-width="2" stroke-miterlimit="10"/>
<path d="M322.198 432.318L365.149 374.499L408.161 316.497L436.852 382.745L465.604 448.81L393.901 440.564L322.198 432.318Z" stroke="url(#paint29_linear)" stroke-width="2" stroke-miterlimit="10"/>
<path d="M317.028 432.003L365.399 371.336L413.709 310.852L442.083 382.878L470.396 455.086L393.712 443.544L317.028 432.003Z" stroke="url(#paint30_linear)" stroke-width="2" stroke-miterlimit="10"/>
<path d="M311.493 431.565L365.649 368.174L419.987 304.844L447.557 383.498L475.37 462.032L393.462 446.707L311.493 431.565Z" stroke="url(#paint31_linear)" stroke-width="2" stroke-miterlimit="10"/>
<path d="M305.472 430.762L366.204 364.708L426.692 298.775L453.577 384.302L480.524 469.647L393.089 450.235L305.472 430.762Z" stroke="url(#paint32_linear)" stroke-width="2" stroke-miterlimit="10"/>
<path d="M299.148 429.653L366.82 361.059L434.31 292.404L460.145 385.289L485.798 478.114L392.473 453.883L299.148 429.653Z" stroke="url(#paint33_linear)" stroke-width="2" stroke-miterlimit="10"/>
<path d="M292.277 428.36L367.559 357.045L442.78 285.913L466.955 386.764L491.01 487.371L391.735 457.896L292.277 428.36Z" stroke="url(#paint34_linear)" stroke-width="2" stroke-miterlimit="10"/>
<path d="M285.163 426.581L368.541 352.911L452.162 279.12L474.13 388.362L496.341 497.482L390.752 462.031L285.163 426.581Z" stroke="url(#paint35_linear)" stroke-width="2" stroke-miterlimit="10"/>
<path d="M277.32 424.557L369.828 348.473L462.336 272.39L481.973 390.386L501.731 508.626L389.404 466.652L277.32 424.557Z" stroke="url(#paint36_linear)" stroke-width="2" stroke-miterlimit="10"/>
<path d="M269.053 421.984L371.238 343.671L473.605 265.419L490.24 392.959L506.997 520.742L387.994 471.454L269.053 421.984Z" stroke="url(#paint37_linear)" stroke-width="2" stroke-miterlimit="10"/>
<path d="M260.361 418.862L373.135 338.625L485.97 258.206L499.115 396.141L512.261 534.076L386.28 476.56L260.361 418.862Z" stroke="url(#paint38_linear)" stroke-width="2" stroke-miterlimit="10"/>
<path d="M251 415.314L375.154 333.216L499.489 251.179L508.414 399.872L517.4 548.383L384.078 481.909L251 415.314Z" stroke="url(#paint39_linear)" stroke-width="2" stroke-miterlimit="10"/>
<path d="M241.094 410.974L377.66 327.564L514.287 243.972L518.382 404.03L522.476 564.088L381.754 487.622L241.094 410.974Z" stroke="url(#paint40_linear)" stroke-width="2" stroke-miterlimit="10"/>
<path d="M230.581 406.023L380.532 321.426L530.484 236.829L528.895 408.98L527.062 581.253L378.943 493.577L230.581 406.023Z" stroke="url(#paint41_linear)" stroke-width="2" stroke-miterlimit="10"/>
<path d="M219.461 400.464L383.892 315.046L548.262 229.811L539.954 414.722L531.646 599.634L375.584 499.958L219.461 400.464Z" stroke="url(#paint42_linear)" stroke-width="2" stroke-miterlimit="10"/>
<path d="M207.856 393.929L387.739 308.423L567.439 222.856L551.559 421.256L535.861 619.718L371.858 506.823L207.856 393.929Z" stroke="url(#paint43_linear)" stroke-width="2" stroke-miterlimit="10"/>
<path d="M195.584 386.36L392.013 301.133L588.38 216.088L564.074 428.705L539.525 641.443L367.645 513.932L195.584 386.36Z" stroke="url(#paint44_linear)" stroke-width="2" stroke-miterlimit="10"/>
<path d="M182.584 377.937L396.895 293.844L611.267 209.568L577.013 437.31L542.637 664.809L362.702 521.403L182.584 377.937Z" stroke="url(#paint45_linear)" stroke-width="2" stroke-miterlimit="10"/>
<path d="M169.161 368.357L402.569 286.008L636.039 203.478L590.618 446.951L545.259 690.242L357.21 529.3L169.161 368.357Z" stroke="url(#paint46_linear)" stroke-width="2" stroke-miterlimit="10"/>
<path d="M154.95 357.498L408.792 277.749L662.634 198L604.83 457.81L547.025 717.621L350.987 537.559L154.95 357.498Z" stroke="url(#paint47_linear)" stroke-width="2" stroke-miterlimit="10"/>
<path d="M139.95 345.36L415.928 269.187L691.723 192.952L619.829 469.948L547.934 746.944L343.851 546.121L139.95 345.36Z" stroke="url(#paint48_linear)" stroke-width="2" stroke-miterlimit="10"/>
<path d="M124.468 331.64L423.794 260.262L723 188.641L635.311 483.669L547.622 778.698L335.984 555.047L124.468 331.64Z" stroke="url(#paint49_linear)" stroke-width="2" stroke-miterlimit="10"/>
<path d="M108.259 316.457L432.636 250.852L757.013 185.246L651.703 498.912L546.393 812.578L327.326 564.518L108.259 316.457Z" stroke="url(#paint50_linear)" stroke-width="2" stroke-miterlimit="10"/>
<defs>
<linearGradient id="paint0_linear" x1="370.196" y1="403.588" x2="386.608" y2="409.098" gradientUnits="userSpaceOnUse">
<stop stop-color="#FF2B06" stop-opacity="0.6"/>
<stop offset="1" stop-color="#FF2B06" stop-opacity="0.4"/>
</linearGradient>
<linearGradient id="paint1_linear" x1="369.8" y1="403.556" x2="387.49" y2="409.495" gradientUnits="userSpaceOnUse">
<stop stop-color="#FF2B06" stop-opacity="0.6"/>
<stop offset="1" stop-color="#FF2B06" stop-opacity="0.4"/>
</linearGradient>
<linearGradient id="paint2_linear" x1="369.192" y1="403.555" x2="388.34" y2="409.984" gradientUnits="userSpaceOnUse">
<stop stop-color="#FF2B06" stop-opacity="0.6"/>
<stop offset="1" stop-color="#FF2B06" stop-opacity="0.4"/>
</linearGradient>
<linearGradient id="paint3_linear" x1="368.614" y1="403.463" x2="389.222" y2="410.381" gradientUnits="userSpaceOnUse">
<stop stop-color="#FF2B06" stop-opacity="0.6"/>
<stop offset="1" stop-color="#FF2B06" stop-opacity="0.4"/>
</linearGradient>
<linearGradient id="paint4_linear" x1="368.006" y1="403.462" x2="390.255" y2="410.931" gradientUnits="userSpaceOnUse">
<stop stop-color="#FF2B06" stop-opacity="0.6"/>
<stop offset="1" stop-color="#FF2B06" stop-opacity="0.4"/>
</linearGradient>
<linearGradient id="paint5_linear" x1="367.58" y1="403.521" x2="391.47" y2="411.542" gradientUnits="userSpaceOnUse">
<stop stop-color="#FF2B06" stop-opacity="0.6"/>
<stop offset="1" stop-color="#FF2B06" stop-opacity="0.4"/>
</linearGradient>
<linearGradient id="paint6_linear" x1="367.125" y1="403.064" x2="392.838" y2="411.697" gradientUnits="userSpaceOnUse">
<stop stop-color="#FF2B06" stop-opacity="0.6"/>
<stop offset="1" stop-color="#FF2B06" stop-opacity="0.4"/>
</linearGradient>
<linearGradient id="paint7_linear" x1="366.639" y1="402.698" x2="394.358" y2="412.005" gradientUnits="userSpaceOnUse">
<stop stop-color="#FF2B06" stop-opacity="0.6"/>
<stop offset="1" stop-color="#FF2B06" stop-opacity="0.4"/>
</linearGradient>
<linearGradient id="paint8_linear" x1="366.214" y1="402.149" x2="395.94" y2="412.129" gradientUnits="userSpaceOnUse">
<stop stop-color="#FF2B06" stop-opacity="0.6"/>
<stop offset="1" stop-color="#FF2B06" stop-opacity="0.4"/>
</linearGradient>
<linearGradient id="paint9_linear" x1="365.972" y1="401.663" x2="397.703" y2="412.316" gradientUnits="userSpaceOnUse">
<stop stop-color="#FF2B06" stop-opacity="0.6"/>
<stop offset="1" stop-color="#FF2B06" stop-opacity="0.4"/>
</linearGradient>
<linearGradient id="paint10_linear" x1="365.73" y1="401.176" x2="399.467" y2="412.502" gradientUnits="userSpaceOnUse">
<stop stop-color="#FF2B06" stop-opacity="0.6"/>
<stop offset="1" stop-color="#FF2B06" stop-opacity="0.4"/>
</linearGradient>
<linearGradient id="paint11_linear" x1="365.305" y1="400.627" x2="401.596" y2="412.811" gradientUnits="userSpaceOnUse">
<stop stop-color="#FF2B06" stop-opacity="0.6"/>
<stop offset="1" stop-color="#FF2B06" stop-opacity="0.4"/>
</linearGradient>
<linearGradient id="paint12_linear" x1="365.093" y1="400.049" x2="403.755" y2="413.029" gradientUnits="userSpaceOnUse">
<stop stop-color="#FF2B06" stop-opacity="0.6"/>
<stop offset="1" stop-color="#FF2B06" stop-opacity="0.4"/>
</linearGradient>
<linearGradient id="paint13_linear" x1="365.095" y1="399.44" x2="406.127" y2="413.216" gradientUnits="userSpaceOnUse">
<stop stop-color="#FF2B06" stop-opacity="0.6"/>
<stop offset="1" stop-color="#FF2B06" stop-opacity="0.4"/>
</linearGradient>
<linearGradient id="paint14_linear" x1="364.944" y1="398.679" x2="408.712" y2="413.374" gradientUnits="userSpaceOnUse">
<stop stop-color="#FF2B06" stop-opacity="0.6"/>
<stop offset="1" stop-color="#FF2B06" stop-opacity="0.4"/>
</linearGradient>
<linearGradient id="paint15_linear" x1="365.007" y1="397.889" x2="411.51" y2="413.502" gradientUnits="userSpaceOnUse">
<stop stop-color="#FF2B06" stop-opacity="0.6"/>
<stop offset="1" stop-color="#FF2B06" stop-opacity="0.4"/>
</linearGradient>
<linearGradient id="paint16_linear" x1="365.07" y1="397.098" x2="414.49" y2="413.691" gradientUnits="userSpaceOnUse">
<stop stop-color="#FF2B06" stop-opacity="0.6"/>
<stop offset="1" stop-color="#FF2B06" stop-opacity="0.4"/>
</linearGradient>
<linearGradient id="paint17_linear" x1="365.345" y1="396.278" x2="417.683" y2="413.85" gradientUnits="userSpaceOnUse">
<stop stop-color="#FF2B06" stop-opacity="0.6"/>
<stop offset="1" stop-color="#FF2B06" stop-opacity="0.4"/>
</linearGradient>
<linearGradient id="paint18_linear" x1="365.833" y1="395.427" x2="421.09" y2="413.979" gradientUnits="userSpaceOnUse">
<stop stop-color="#FF2B06" stop-opacity="0.6"/>
<stop offset="1" stop-color="#FF2B06" stop-opacity="0.4"/>
</linearGradient>
<linearGradient id="paint19_linear" x1="366.353" y1="394.485" x2="424.709" y2="414.077" gradientUnits="userSpaceOnUse">
<stop stop-color="#FF2B06" stop-opacity="0.6"/>
<stop offset="1" stop-color="#FF2B06" stop-opacity="0.4"/>
</linearGradient>
<linearGradient id="paint20_linear" x1="367.115" y1="393.422" x2="428.754" y2="414.117" gradientUnits="userSpaceOnUse">
<stop stop-color="#FF2B06" stop-opacity="0.6"/>
<stop offset="1" stop-color="#FF2B06" stop-opacity="0.4"/>
</linearGradient>
<linearGradient id="paint21_linear" x1="365.325" y1="391.502" x2="432.8" y2="414.156" gradientUnits="userSpaceOnUse">
<stop stop-color="#FF2B06" stop-opacity="0.6"/>
<stop offset="1" stop-color="#FF2B06" stop-opacity="0.4"/>
</linearGradient>
<linearGradient id="paint22_linear" x1="363.413" y1="389.338" x2="437.453" y2="414.196" gradientUnits="userSpaceOnUse">
<stop stop-color="#FF2B06" stop-opacity="0.6"/>
<stop offset="1" stop-color="#FF2B06" stop-opacity="0.4"/>
</linearGradient>
<linearGradient id="paint23_linear" x1="361.381" y1="386.931" x2="442.168" y2="414.055" gradientUnits="userSpaceOnUse">
<stop stop-color="#FF2B06" stop-opacity="0.6"/>
<stop offset="1" stop-color="#FF2B06" stop-opacity="0.4"/>
</linearGradient>
<linearGradient id="paint24_linear" x1="359.014" y1="384.31" x2="447.278" y2="413.944" gradientUnits="userSpaceOnUse">
<stop stop-color="#FF2B06" stop-opacity="0.6"/>
<stop offset="1" stop-color="#FF2B06" stop-opacity="0.4"/>
</linearGradient>
<linearGradient id="paint25_linear" x1="356.495" y1="381.537" x2="452.601" y2="413.804" gradientUnits="userSpaceOnUse">
<stop stop-color="#FF2B06" stop-opacity="0.6"/>
<stop offset="1" stop-color="#FF2B06" stop-opacity="0.4"/>
</linearGradient>
<linearGradient id="paint26_linear" x1="353.886" y1="378.429" x2="458.381" y2="413.512" gradientUnits="userSpaceOnUse">
<stop stop-color="#FF2B06" stop-opacity="0.6"/>
<stop offset="1" stop-color="#FF2B06" stop-opacity="0.4"/>
</linearGradient>
<linearGradient id="paint27_linear" x1="350.943" y1="375.107" x2="464.556" y2="413.251" gradientUnits="userSpaceOnUse">
<stop stop-color="#FF2B06" stop-opacity="0.6"/>
<stop offset="1" stop-color="#FF2B06" stop-opacity="0.4"/>
</linearGradient>
<linearGradient id="paint28_linear" x1="347.758" y1="371.298" x2="471.036" y2="412.688" gradientUnits="userSpaceOnUse">
<stop stop-color="#FF2B06" stop-opacity="0.6"/>
<stop offset="1" stop-color="#FF2B06" stop-opacity="0.4"/>
</linearGradient>
<linearGradient id="paint29_linear" x1="344.025" y1="367.306" x2="477.88" y2="412.246" gradientUnits="userSpaceOnUse">
<stop stop-color="#FF2B06" stop-opacity="0.6"/>
<stop offset="1" stop-color="#FF2B06" stop-opacity="0.4"/>
</linearGradient>
<linearGradient id="paint30_linear" x1="340.202" y1="362.978" x2="484.999" y2="411.592" gradientUnits="userSpaceOnUse">
<stop stop-color="#FF2B06" stop-opacity="0.6"/>
<stop offset="1" stop-color="#FF2B06" stop-opacity="0.4"/>
</linearGradient>
<linearGradient id="paint31_linear" x1="336.106" y1="358.255" x2="492.574" y2="410.788" gradientUnits="userSpaceOnUse">
<stop stop-color="#FF2B06" stop-opacity="0.6"/>
<stop offset="1" stop-color="#FF2B06" stop-opacity="0.4"/>
</linearGradient>
<linearGradient id="paint32_linear" x1="331.524" y1="353.166" x2="500.575" y2="409.923" gradientUnits="userSpaceOnUse">
<stop stop-color="#FF2B06" stop-opacity="0.6"/>
<stop offset="1" stop-color="#FF2B06" stop-opacity="0.4"/>
</linearGradient>
<linearGradient id="paint33_linear" x1="326.7" y1="347.589" x2="509.064" y2="408.816" gradientUnits="userSpaceOnUse">
<stop stop-color="#FF2B06" stop-opacity="0.6"/>
<stop offset="1" stop-color="#FF2B06" stop-opacity="0.4"/>
</linearGradient>
<linearGradient id="paint34_linear" x1="321.39" y1="341.646" x2="517.796" y2="407.587" gradientUnits="userSpaceOnUse">
<stop stop-color="#FF2B06" stop-opacity="0.6"/>
<stop offset="1" stop-color="#FF2B06" stop-opacity="0.4"/>
</linearGradient>
<linearGradient id="paint35_linear" x1="315.868" y1="335.126" x2="527.046" y2="406.026" gradientUnits="userSpaceOnUse">
<stop stop-color="#FF2B06" stop-opacity="0.6"/>
<stop offset="1" stop-color="#FF2B06" stop-opacity="0.4"/>
</linearGradient>
<linearGradient id="paint36_linear" x1="308.332" y1="332.19" x2="535.375" y2="408.417" gradientUnits="userSpaceOnUse">
<stop stop-color="#FF2B06" stop-opacity="0.6"/>
<stop offset="1" stop-color="#FF2B06" stop-opacity="0.4"/>
</linearGradient>
<linearGradient id="paint37_linear" x1="300.187" y1="329.252" x2="543.825" y2="411.05" gradientUnits="userSpaceOnUse">
<stop stop-color="#FF2B06" stop-opacity="0.6"/>
<stop offset="1" stop-color="#FF2B06" stop-opacity="0.4"/>
</linearGradient>
<linearGradient id="paint38_linear" x1="291.403" y1="326.404" x2="552.548" y2="414.08" gradientUnits="userSpaceOnUse">
<stop stop-color="#FF2B06" stop-opacity="0.6"/>
<stop offset="1" stop-color="#FF2B06" stop-opacity="0.4"/>
</linearGradient>
<linearGradient id="paint39_linear" x1="281.766" y1="323.676" x2="561.33" y2="417.537" gradientUnits="userSpaceOnUse">
<stop stop-color="#FF2B06" stop-opacity="0.6"/>
<stop offset="1" stop-color="#FF2B06" stop-opacity="0.4"/>
</linearGradient>
<linearGradient id="paint40_linear" x1="271.278" y1="321.068" x2="570.355" y2="421.48" gradientUnits="userSpaceOnUse">
<stop stop-color="#FF2B06" stop-opacity="0.6"/>
<stop offset="1" stop-color="#FF2B06" stop-opacity="0.4"/>
</linearGradient>
<linearGradient id="paint41_linear" x1="259.878" y1="318.762" x2="579.197" y2="425.97" gradientUnits="userSpaceOnUse">
<stop stop-color="#FF2B06" stop-opacity="0.6"/>
<stop offset="1" stop-color="#FF2B06" stop-opacity="0.4"/>
</linearGradient>
<linearGradient id="paint42_linear" x1="247.625" y1="316.576" x2="588.281" y2="430.947" gradientUnits="userSpaceOnUse">
<stop stop-color="#FF2B06" stop-opacity="0.6"/>
<stop offset="1" stop-color="#FF2B06" stop-opacity="0.4"/>
</linearGradient>
<linearGradient id="paint43_linear" x1="234.428" y1="314.783" x2="597.332" y2="436.624" gradientUnits="userSpaceOnUse">
<stop stop-color="#FF2B06" stop-opacity="0.6"/>
<stop offset="1" stop-color="#FF2B06" stop-opacity="0.4"/>
</linearGradient>
<linearGradient id="paint44_linear" x1="220.105" y1="313.323" x2="606.17" y2="442.939" gradientUnits="userSpaceOnUse">
<stop stop-color="#FF2B06" stop-opacity="0.6"/>
<stop offset="1" stop-color="#FF2B06" stop-opacity="0.4"/>
</linearGradient>
<linearGradient id="paint45_linear" x1="204.656" y1="312.195" x2="614.793" y2="449.893" gradientUnits="userSpaceOnUse">
<stop stop-color="#FF2B06" stop-opacity="0.6"/>
<stop offset="1" stop-color="#FF2B06" stop-opacity="0.4"/>
</linearGradient>
<linearGradient id="paint46_linear" x1="188.172" y1="311.733" x2="623.292" y2="457.82" gradientUnits="userSpaceOnUse">
<stop stop-color="#FF2B06" stop-opacity="0.6"/>
<stop offset="1" stop-color="#FF2B06" stop-opacity="0.4"/>
</linearGradient>
<linearGradient id="paint47_linear" x1="170.256" y1="311.907" x2="631.272" y2="466.688" gradientUnits="userSpaceOnUse">
<stop stop-color="#FF2B06" stop-opacity="0.6"/>
<stop offset="1" stop-color="#FF2B06" stop-opacity="0.4"/>
</linearGradient>
<linearGradient id="paint48_linear" x1="150.971" y1="312.535" x2="638.795" y2="476.316" gradientUnits="userSpaceOnUse">
<stop stop-color="#FF2B06" stop-opacity="0.6"/>
<stop offset="1" stop-color="#FF2B06" stop-opacity="0.4"/>
</linearGradient>
<linearGradient id="paint49_linear" x1="130.346" y1="314.133" x2="645.524" y2="487.098" gradientUnits="userSpaceOnUse">
<stop stop-color="#FF2B06" stop-opacity="0.6"/>
<stop offset="1" stop-color="#FF2B06" stop-opacity="0.4"/>
</linearGradient>
<linearGradient id="paint50_linear" x1="108.259" y1="316.457" x2="651.703" y2="498.912" gradientUnits="userSpaceOnUse">
<stop stop-color="#FF2B06" stop-opacity="0.6"/>
<stop offset="1" stop-color="#FF2B06" stop-opacity="0.4"/>
</linearGradient>
</defs>
</svg>
