<svg width="363" height="390" viewBox="0 0 363 390" fill="none" xmlns="http://www.w3.org/2000/svg">
<path d="M184.127 200.035C197.919 192.841 207.862 184.721 206.335 181.9C204.809 179.079 192.391 182.624 178.599 189.819C164.807 197.014 154.864 205.133 156.391 207.955C157.917 210.776 170.336 207.23 184.127 200.035Z" stroke="url(#paint0_linear)" stroke-width="1.60417" stroke-miterlimit="10"/>
<path d="M184.616 200.249C200.363 191.248 211.714 181.564 209.968 178.619C208.222 175.674 194.04 180.583 178.293 189.583C162.545 198.584 151.194 208.267 152.94 211.213C154.686 214.158 168.868 209.249 184.616 200.249Z" stroke="url(#paint1_linear)" stroke-width="1.60417" stroke-miterlimit="10"/>
<path d="M184.976 200.513C202.809 189.449 215.669 177.998 213.699 174.937C211.73 171.877 195.676 178.365 177.843 189.429C160.009 200.493 147.149 211.944 149.119 215.005C151.089 218.066 167.143 211.578 184.976 200.513Z" stroke="url(#paint2_linear)" stroke-width="1.60417" stroke-miterlimit="10"/>
<path d="M185.309 200.801C205.386 187.372 219.854 173.882 217.625 170.669C215.397 167.457 197.315 175.74 177.238 189.17C157.162 202.599 142.693 216.089 144.922 219.302C147.151 222.514 165.233 214.231 185.309 200.801Z" stroke="url(#paint3_linear)" stroke-width="1.60417" stroke-miterlimit="10"/>
<path d="M185.919 201.061C208.336 184.977 224.46 169.185 221.933 165.789C219.405 162.393 199.183 172.679 176.766 188.763C154.349 204.846 138.226 220.638 140.753 224.034C143.281 227.43 163.502 217.145 185.919 201.061Z" stroke="url(#paint4_linear)" stroke-width="1.60417" stroke-miterlimit="10"/>
<path d="M186.655 201.45C211.534 182.381 229.376 163.995 226.506 160.386C223.636 156.776 201.141 169.309 176.262 188.379C151.383 207.449 133.541 225.834 136.411 229.444C139.281 233.054 161.776 220.52 186.655 201.45Z" stroke="url(#paint5_linear)" stroke-width="1.60417" stroke-miterlimit="10"/>
<path d="M187.156 201.919C214.505 179.586 234.033 158.363 230.774 154.515C227.515 150.667 202.702 165.652 175.354 187.985C148.005 210.318 128.477 231.542 131.736 235.389C134.995 239.237 159.808 224.252 187.156 201.919Z" stroke="url(#paint6_linear)" stroke-width="1.60417" stroke-miterlimit="10"/>
<path d="M188.101 202.406C217.999 176.444 239.236 152.068 235.536 147.96C231.835 143.851 204.599 161.567 174.701 187.529C144.804 213.491 123.566 237.867 127.267 241.975C130.967 246.083 158.204 228.367 188.101 202.406Z" stroke="url(#paint7_linear)" stroke-width="1.60417" stroke-miterlimit="10"/>
<path d="M189.162 202.998C221.529 173.136 244.307 145.31 240.036 140.848C235.766 136.385 206.064 156.976 173.697 186.838C141.329 216.699 118.552 244.525 122.822 248.987C127.093 253.45 156.794 232.859 189.162 202.998Z" stroke="url(#paint8_linear)" stroke-width="1.60417" stroke-miterlimit="10"/>
<path d="M190.225 203.735C225.038 169.621 249.284 138.056 244.381 133.232C239.478 128.409 207.282 152.153 172.469 186.266C137.656 220.38 113.41 251.945 118.313 256.768C123.216 261.592 155.412 237.848 190.225 203.735Z" stroke="url(#paint9_linear)" stroke-width="1.60417" stroke-miterlimit="10"/>
<path d="M191.632 204.426C228.715 165.797 254.17 130.218 248.488 124.959C242.805 119.701 208.137 146.753 171.054 185.382C133.971 224.011 108.516 259.59 114.198 264.848C119.881 270.107 154.549 243.055 191.632 204.426Z" stroke="url(#paint10_linear)" stroke-width="1.60417" stroke-miterlimit="10"/>
<path d="M193.224 205.218C232.37 161.807 258.773 121.979 252.196 116.262C245.619 110.544 208.552 141.101 169.405 184.512C130.259 227.924 103.856 267.751 110.433 273.469C117.01 279.186 154.077 248.63 193.224 205.218Z" stroke="url(#paint11_linear)" stroke-width="1.60417" stroke-miterlimit="10"/>
<path d="M195.211 206.311C236.143 157.883 263.101 113.553 255.423 107.296C247.745 101.04 208.339 135.227 167.406 183.655C126.474 232.082 99.5161 276.413 107.194 282.669C114.872 288.925 154.278 254.738 195.211 206.311Z" stroke="url(#paint12_linear)" stroke-width="1.60417" stroke-miterlimit="10"/>
<path d="M197.721 207.373C240.076 153.716 267.08 104.64 258.037 97.7575C248.993 90.8753 207.326 128.794 164.971 182.451C122.615 236.108 95.6112 285.184 104.655 292.067C113.699 298.949 155.366 261.03 197.721 207.373Z" stroke="url(#paint13_linear)" stroke-width="1.60417" stroke-miterlimit="10"/>
<path d="M200.675 208.643C243.947 149.679 270.36 95.7481 259.669 88.1844C248.979 80.6207 205.233 122.289 161.961 181.252C118.688 240.216 92.2754 294.146 102.966 301.71C113.657 309.274 157.403 267.606 200.675 208.643Z" stroke="url(#paint14_linear)" stroke-width="1.60417" stroke-miterlimit="10"/>
<path d="M204.473 210C248.11 145.647 273.129 86.7088 260.354 78.3581C247.58 70.0074 201.85 115.406 158.213 179.759C114.576 244.112 89.5571 303.05 102.331 311.401C115.106 319.751 160.836 274.352 204.473 210Z" stroke="url(#paint15_linear)" stroke-width="1.60417" stroke-miterlimit="10"/>
<path d="M209.13 211.514C252.442 141.841 275.132 77.9162 259.81 68.7342C244.489 59.5523 196.957 108.59 153.646 178.263C110.335 247.936 87.6451 311.861 102.967 321.043C118.288 330.225 165.819 281.187 209.13 211.514Z" stroke="url(#paint16_linear)" stroke-width="1.60417" stroke-miterlimit="10"/>
<path d="M214.676 213.096C256.888 138.245 276.149 69.434 257.695 59.4012C239.242 49.3683 190.062 101.913 147.85 176.764C105.638 251.614 86.3773 320.425 104.831 330.458C123.284 340.491 172.464 287.946 214.676 213.096Z" stroke="url(#paint17_linear)" stroke-width="1.60417" stroke-miterlimit="10"/>
<path d="M222.05 214.751C262.316 134.986 276.76 61.4676 254.313 50.5434C231.865 39.6191 181.026 95.4257 140.76 175.191C100.494 254.956 86.0495 328.475 108.497 339.399C130.945 350.323 181.784 294.516 222.05 214.751Z" stroke="url(#paint18_linear)" stroke-width="1.60417" stroke-miterlimit="10"/>
<path d="M230.987 216.174C268.382 131.872 276.449 54.0188 249.006 42.2831C221.563 30.5475 169.002 89.3738 131.607 173.675C94.2121 257.977 86.1446 335.831 113.588 347.566C141.031 359.302 193.592 300.476 230.987 216.174Z" stroke="url(#paint19_linear)" stroke-width="1.60417" stroke-miterlimit="10"/>
<path d="M242.463 217.362C276.038 129.077 275.87 47.4667 242.087 35.0813C208.305 22.6959 153.702 84.225 120.127 172.511C86.5522 260.796 86.7204 342.406 120.503 354.791C154.285 367.177 208.888 305.648 242.463 217.362Z" stroke="url(#paint20_linear)" stroke-width="1.60417" stroke-miterlimit="10"/>
<path d="M257.047 217.924C285.887 126.308 275.373 41.7534 233.563 29.0651C191.753 16.3767 134.48 80.3596 105.64 171.975C76.7997 263.59 87.3138 348.145 129.124 360.833C170.933 373.522 228.207 309.539 257.047 217.924Z" stroke="url(#paint21_linear)" stroke-width="1.60417" stroke-miterlimit="10"/>
<path d="M275.338 217.342C298.635 123.067 275.442 36.6175 223.534 24.2509C171.627 11.8844 110.66 78.2839 87.3629 172.558C64.0652 266.833 87.2584 353.283 139.166 365.649C191.074 378.016 252.04 311.616 275.338 217.342Z" stroke="url(#paint22_linear)" stroke-width="1.60417" stroke-miterlimit="10"/>
<path d="M298.251 215.003C315.327 118.861 276.815 31.9581 212.231 20.899C147.647 9.83992 81.4473 78.813 64.3705 174.955C47.2938 271.096 85.8062 358 150.39 369.059C214.975 380.118 281.174 311.145 298.251 215.003Z" stroke="url(#paint23_linear)" stroke-width="1.60417" stroke-miterlimit="10"/>
<path d="M326.646 209.934C337.036 112.663 280.362 27.1057 200.061 18.8368C119.761 10.5679 46.2413 82.7182 35.8514 179.989C25.4614 277.26 82.1353 362.817 162.436 371.086C242.737 379.355 316.256 307.204 326.646 209.934Z" stroke="url(#paint24_linear)" stroke-width="1.60417" stroke-miterlimit="10"/>
<path d="M181.354 372.142C281.024 372.142 361.823 292.809 361.823 194.947C361.823 97.0851 281.024 17.7522 181.354 17.7522C81.6839 17.7522 0.885193 97.0851 0.885193 194.947C0.885193 292.809 81.6839 372.142 181.354 372.142Z" stroke="url(#paint25_linear)" stroke-width="1.60417" stroke-miterlimit="10"/>
<defs>
<linearGradient id="paint0_linear" x1="178.599" y1="189.819" x2="183.971" y2="200.117" gradientUnits="userSpaceOnUse">
<stop stop-color="#FF2B06" stop-opacity="0.8"/>
<stop offset="1" stop-color="#FF2B06" stop-opacity="0.4"/>
</linearGradient>
<linearGradient id="paint1_linear" x1="178.293" y1="189.583" x2="184.444" y2="200.347" gradientUnits="userSpaceOnUse">
<stop stop-color="#FF2B06" stop-opacity="0.8"/>
<stop offset="1" stop-color="#FF2B06" stop-opacity="0.4"/>
</linearGradient>
<linearGradient id="paint2_linear" x1="177.843" y1="189.429" x2="184.791" y2="200.628" gradientUnits="userSpaceOnUse">
<stop stop-color="#FF2B06" stop-opacity="0.8"/>
<stop offset="1" stop-color="#FF2B06" stop-opacity="0.4"/>
</linearGradient>
<linearGradient id="paint3_linear" x1="177.238" y1="189.17" x2="185.109" y2="200.936" gradientUnits="userSpaceOnUse">
<stop stop-color="#FF2B06" stop-opacity="0.8"/>
<stop offset="1" stop-color="#FF2B06" stop-opacity="0.4"/>
</linearGradient>
<linearGradient id="paint4_linear" x1="176.766" y1="188.763" x2="185.702" y2="201.217" gradientUnits="userSpaceOnUse">
<stop stop-color="#FF2B06" stop-opacity="0.8"/>
<stop offset="1" stop-color="#FF2B06" stop-opacity="0.4"/>
</linearGradient>
<linearGradient id="paint5_linear" x1="176.262" y1="188.379" x2="186.42" y2="201.631" gradientUnits="userSpaceOnUse">
<stop stop-color="#FF2B06" stop-opacity="0.8"/>
<stop offset="1" stop-color="#FF2B06" stop-opacity="0.4"/>
</linearGradient>
<linearGradient id="paint6_linear" x1="175.354" y1="187.985" x2="186.902" y2="202.127" gradientUnits="userSpaceOnUse">
<stop stop-color="#FF2B06" stop-opacity="0.8"/>
<stop offset="1" stop-color="#FF2B06" stop-opacity="0.4"/>
</linearGradient>
<linearGradient id="paint7_linear" x1="174.701" y1="187.529" x2="187.827" y2="202.644" gradientUnits="userSpaceOnUse">
<stop stop-color="#FF2B06" stop-opacity="0.8"/>
<stop offset="1" stop-color="#FF2B06" stop-opacity="0.4"/>
</linearGradient>
<linearGradient id="paint8_linear" x1="173.697" y1="186.838" x2="188.861" y2="203.275" gradientUnits="userSpaceOnUse">
<stop stop-color="#FF2B06" stop-opacity="0.8"/>
<stop offset="1" stop-color="#FF2B06" stop-opacity="0.4"/>
</linearGradient>
<linearGradient id="paint9_linear" x1="172.469" y1="186.266" x2="189.899" y2="204.054" gradientUnits="userSpaceOnUse">
<stop stop-color="#FF2B06" stop-opacity="0.8"/>
<stop offset="1" stop-color="#FF2B06" stop-opacity="0.4"/>
</linearGradient>
<linearGradient id="paint10_linear" x1="171.054" y1="185.382" x2="191.277" y2="204.796" gradientUnits="userSpaceOnUse">
<stop stop-color="#FF2B06" stop-opacity="0.8"/>
<stop offset="1" stop-color="#FF2B06" stop-opacity="0.4"/>
</linearGradient>
<linearGradient id="paint11_linear" x1="169.405" y1="184.512" x2="192.84" y2="205.644" gradientUnits="userSpaceOnUse">
<stop stop-color="#FF2B06" stop-opacity="0.8"/>
<stop offset="1" stop-color="#FF2B06" stop-opacity="0.4"/>
</linearGradient>
<linearGradient id="paint12_linear" x1="167.406" y1="183.655" x2="194.794" y2="206.803" gradientUnits="userSpaceOnUse">
<stop stop-color="#FF2B06" stop-opacity="0.8"/>
<stop offset="1" stop-color="#FF2B06" stop-opacity="0.4"/>
</linearGradient>
<linearGradient id="paint13_linear" x1="164.971" y1="182.451" x2="197.269" y2="207.946" gradientUnits="userSpaceOnUse">
<stop stop-color="#FF2B06" stop-opacity="0.8"/>
<stop offset="1" stop-color="#FF2B06" stop-opacity="0.4"/>
</linearGradient>
<linearGradient id="paint14_linear" x1="161.961" y1="181.252" x2="200.188" y2="209.306" gradientUnits="userSpaceOnUse">
<stop stop-color="#FF2B06" stop-opacity="0.8"/>
<stop offset="1" stop-color="#FF2B06" stop-opacity="0.4"/>
</linearGradient>
<linearGradient id="paint15_linear" x1="158.213" y1="179.759" x2="203.949" y2="210.772" gradientUnits="userSpaceOnUse">
<stop stop-color="#FF2B06" stop-opacity="0.8"/>
<stop offset="1" stop-color="#FF2B06" stop-opacity="0.4"/>
</linearGradient>
<linearGradient id="paint16_linear" x1="153.646" y1="178.263" x2="208.574" y2="212.408" gradientUnits="userSpaceOnUse">
<stop stop-color="#FF2B06" stop-opacity="0.8"/>
<stop offset="1" stop-color="#FF2B06" stop-opacity="0.4"/>
</linearGradient>
<linearGradient id="paint17_linear" x1="147.85" y1="176.764" x2="214.096" y2="214.124" gradientUnits="userSpaceOnUse">
<stop stop-color="#FF2B06" stop-opacity="0.8"/>
<stop offset="1" stop-color="#FF2B06" stop-opacity="0.4"/>
</linearGradient>
<linearGradient id="paint18_linear" x1="140.76" y1="175.191" x2="221.456" y2="215.927" gradientUnits="userSpaceOnUse">
<stop stop-color="#FF2B06" stop-opacity="0.8"/>
<stop offset="1" stop-color="#FF2B06" stop-opacity="0.4"/>
</linearGradient>
<linearGradient id="paint19_linear" x1="131.607" y1="173.675" x2="230.4" y2="217.498" gradientUnits="userSpaceOnUse">
<stop stop-color="#FF2B06" stop-opacity="0.8"/>
<stop offset="1" stop-color="#FF2B06" stop-opacity="0.4"/>
</linearGradient>
<linearGradient id="paint20_linear" x1="120.127" y1="172.511" x2="241.907" y2="218.823" gradientUnits="userSpaceOnUse">
<stop stop-color="#FF2B06" stop-opacity="0.8"/>
<stop offset="1" stop-color="#FF2B06" stop-opacity="0.4"/>
</linearGradient>
<linearGradient id="paint21_linear" x1="105.64" y1="171.975" x2="256.556" y2="219.483" gradientUnits="userSpaceOnUse">
<stop stop-color="#FF2B06" stop-opacity="0.8"/>
<stop offset="1" stop-color="#FF2B06" stop-opacity="0.4"/>
</linearGradient>
<linearGradient id="paint22_linear" x1="87.3629" y1="172.558" x2="274.949" y2="218.916" gradientUnits="userSpaceOnUse">
<stop stop-color="#FF2B06" stop-opacity="0.8"/>
<stop offset="1" stop-color="#FF2B06" stop-opacity="0.4"/>
</linearGradient>
<linearGradient id="paint23_linear" x1="64.3705" y1="174.955" x2="297.993" y2="216.451" gradientUnits="userSpaceOnUse">
<stop stop-color="#FF2B06" stop-opacity="0.8"/>
<stop offset="1" stop-color="#FF2B06" stop-opacity="0.4"/>
</linearGradient>
<linearGradient id="paint24_linear" x1="35.8514" y1="179.989" x2="326.528" y2="211.038" gradientUnits="userSpaceOnUse">
<stop stop-color="#FF2B06" stop-opacity="0.8"/>
<stop offset="1" stop-color="#FF2B06" stop-opacity="0.4"/>
</linearGradient>
<linearGradient id="paint25_linear" x1="181.354" y1="17.7522" x2="181.354" y2="372.142" gradientUnits="userSpaceOnUse">
<stop stop-color="#FF2B06" stop-opacity="0.8"/>
<stop offset="1" stop-color="#FF2B06" stop-opacity="0.4"/>
</linearGradient>
</defs>
</svg>
